<?xml version="1.0" encoding="utf-8"?>
<!DOCTYPE svg PUBLIC "-//W3C//DTD SVG 1.0//EN" "http://www.w3.org/TR/2001/REC-SVG-20010904/DTD/svg10.dtd">
<svg version="1.0" xmlns="http://www.w3.org/2000/svg" width="300px" height="300px" viewBox="0 0 300 300" preserveAspectRatio="xMidYMid meet">
  <!-- Asegúrate de que todos los elementos dentro del SVG tengan fill="currentColor" -->
  <g fill="currentColor">
    <path d="M87.8 208.5 c-4.6 -2.5 -6.4 -8.5 -11.2 -37.7 -2.5 -15.2 -4.6 -28.4 -4.6 -29.3 0 -1.3 8.3 -1.5 78.5 -1.5 l78.6 0 -0.6 3.3 c-0.3 1.7 -2.3 14.2 -4.5 27.7 -5 30.7 -5.4 32.3 -9.7 36 l-3.4 3 -60.2 0 c-50.4 -0.1 -60.6 -0.3 -62.9 -1.5z m25 -14.1 c2.1 -1.5 2.2 -2.1 2.2 -17.1 0 -13.2 -0.3 -15.9 -1.7 -17.5 -2 -2.2 -4.1 -2.3 -6.5 -0.1 -1.6 1.4 -1.8 3.4 -1.8 17.4 0 15.2 0.1 15.8 2.2 17.3 1.2 0.9 2.5 1.6 2.8 1.6 0.3 0 1.6 -0.7 2.8 -1.6z m40.8 0.2 c1.7 -1.3 1.9 -2.9 2.2 -15.6 0.4 -16.4 0 -18.7 -3.3 -20.2 -1.9 -0.9 -2.9 -0.7 -5 0.6 l-2.5 1.6 0 16 c0 15.3 0.1 15.9 2.2 17.4 2.8 2 3.9 2 6.4 0.2z m33.2 -0.2 c2.1 -1.5 2.2 -2.1 2.2 -17.1 0 -13.2 -0.3 -15.9 -1.7 -17.5 -2 -2.2 -4.1 -2.3 -6.5 -0.1 -1.6 1.4 -1.8 3.4 -1.8 17.4 0 15.2 0.1 15.8 2.2 17.3 1.2 0.9 2.5 1.6 2.8 1.6 0.3 0 1.6 -0.7 2.8 -1.6z"/>
    <path d="M57.9 127.3 c-0.9 -1 -1.5 -4.9 -1.7 -10.7 -0.3 -8.1 -0.1 -9.3 1.8 -11.3 l2.1 -2.3 89.7 0 c79.6 0 90 0.2 92 1.6 2 1.4 2.2 2.3 2.2 11.8 0 6.6 -0.4 10.6 -1.2 11.4 -0.9 0.9 -22.8 1.2 -92.4 1.2 -83.5 0 -91.3 -0.1 -92.5 -1.7z"/>
    <path d="M67.4 89.6 c0.3 -1.3 2.2 -9.7 4.1 -18.7 5.2 -23.8 8.9 -30.5 19.7 -36.4 4.3 -2.3 6.8 -3 13.5 -3.3 l8.3 -0.5 0 4.7 0 4.6 -4.3 0 c-10.4 0 -19.1 5.2 -22.8 13.4 -0.9 2.3 -3.4 11.9 -5.5 21.4 l-3.7 17.2 -5 0 c-4.7 0 -4.9 -0.1 -4.3 -2.4z"/>
    <path d="M223.5 89.8 c-0.3 -1.3 -2.1 -9.7 -4.1 -18.8 -2.4 -10.9 -4.4 -17.7 -5.9 -20.2 -4.6 -7 -12 -10.8 -21.2 -10.8 l-4.3 0 0 -4.5 0 -4.5 6.5 0 c12.5 0 23.9 7 28.6 17.5 1.1 2.4 3.9 13.2 6.2 23.9 l4.4 19.6 -4.8 0 c-4.2 0 -4.9 -0.3 -5.4 -2.2z"/>
    <path d="M128 48.3 c-3.3 -1.2 -4 -3.7 -4 -13.5 0 -13.6 -1.3 -13 27.5 -12.6 27.1 0.4 25.5 -0.5 25.5 13.3 0 13.8 1.5 13 -25.2 13.2 -12.3 0.1 -23 -0.1 -23.8 -0.4z"/>
  </g>
</svg>
